<svg width="24" height="25" viewBox="0 0 24 25" fill="none" xmlns="http://www.w3.org/2000/svg">
<path d="M10.3 7.9095C9.91 8.3096 9.91 8.94565 10.3 9.34575L12.2 11.295H3C2.45 11.295 2 11.7566 2 12.3209C2 12.8851 2.45 13.3468 3 13.3468H12.2L10.3 15.296C9.91 15.6961 9.91 16.3321 10.3 16.7322C10.69 17.1323 11.31 17.1323 11.7 16.7322L15.29 13.0493C15.68 12.6492 15.68 12.0028 15.29 11.6027L11.7 7.9095C11.31 7.50939 10.69 7.50939 10.3 7.9095ZM20 19.5022H13C12.45 19.5022 12 19.9638 12 20.5281C12 21.0923 12.45 21.554 13 21.554H20C21.1 21.554 22 20.6306 22 19.5022V5.13957C22 4.01108 21.1 3.08777 20 3.08777H13C12.45 3.08777 12 3.54942 12 4.11367C12 4.67791 12.45 5.13957 13 5.13957H20V19.5022Z" fill="white"/>
</svg>
