<svg width="27" height="27" viewBox="0 0 27 27" fill="none" xmlns="http://www.w3.org/2000/svg">
<path d="M13.5 2.43105C17.107 2.43105 17.5342 2.44687 18.9527 2.51016C20.2711 2.56816 20.983 2.78965 21.4576 2.97422C22.0852 3.2168 22.5387 3.51211 23.008 3.98145C23.4826 4.45605 23.7727 4.9043 24.0152 5.53184C24.1998 6.00645 24.4213 6.72363 24.4793 8.03672C24.5426 9.46055 24.5584 9.8877 24.5584 13.4895C24.5584 17.0965 24.5426 17.5236 24.4793 18.9422C24.4213 20.2605 24.1998 20.9725 24.0152 21.4471C23.7727 22.0746 23.4773 22.5281 23.008 22.9975C22.5334 23.4721 22.0852 23.7621 21.4576 24.0047C20.983 24.1893 20.2658 24.4107 18.9527 24.4688C17.5289 24.532 17.1018 24.5479 13.5 24.5479C9.89297 24.5479 9.46582 24.532 8.04727 24.4688C6.72891 24.4107 6.01699 24.1893 5.54238 24.0047C4.91484 23.7621 4.46133 23.4668 3.99199 22.9975C3.51738 22.5229 3.22734 22.0746 2.98477 21.4471C2.8002 20.9725 2.57871 20.2553 2.5207 18.9422C2.45742 17.5184 2.4416 17.0912 2.4416 13.4895C2.4416 9.88242 2.45742 9.45527 2.5207 8.03672C2.57871 6.71836 2.8002 6.00645 2.98477 5.53184C3.22734 4.9043 3.52266 4.45078 3.99199 3.98145C4.4666 3.50684 4.91484 3.2168 5.54238 2.97422C6.01699 2.78965 6.73418 2.56816 8.04727 2.51016C9.46582 2.44687 9.89297 2.43105 13.5 2.43105ZM13.5 0C9.83496 0 9.37617 0.0158203 7.93652 0.0791016C6.50215 0.142383 5.51602 0.374414 4.66172 0.706641C3.77051 1.05469 3.01641 1.51348 2.26758 2.26758C1.51348 3.01641 1.05469 3.77051 0.706641 4.65645C0.374414 5.51602 0.142383 6.49687 0.0791016 7.93125C0.0158203 9.37617 0 9.83496 0 13.5C0 17.165 0.0158203 17.6238 0.0791016 19.0635C0.142383 20.4979 0.374414 21.484 0.706641 22.3383C1.05469 23.2295 1.51348 23.9836 2.26758 24.7324C3.01641 25.4813 3.77051 25.9453 4.65645 26.2881C5.51602 26.6203 6.49688 26.8523 7.93125 26.9156C9.3709 26.9789 9.82969 26.9947 13.4947 26.9947C17.1598 26.9947 17.6186 26.9789 19.0582 26.9156C20.4926 26.8523 21.4787 26.6203 22.333 26.2881C23.2189 25.9453 23.973 25.4813 24.7219 24.7324C25.4707 23.9836 25.9348 23.2295 26.2775 22.3436C26.6098 21.484 26.8418 20.5031 26.9051 19.0688C26.9684 17.6291 26.9842 17.1703 26.9842 13.5053C26.9842 9.84023 26.9684 9.38145 26.9051 7.9418C26.8418 6.50742 26.6098 5.52129 26.2775 4.66699C25.9453 3.77051 25.4865 3.01641 24.7324 2.26758C23.9836 1.51875 23.2295 1.05469 22.3436 0.711914C21.484 0.379687 20.5031 0.147656 19.0688 0.084375C17.6238 0.0158203 17.165 0 13.5 0Z" fill="white"/>
<path d="M13.5 6.56543C9.67148 6.56543 6.56543 9.67148 6.56543 13.5C6.56543 17.3285 9.67148 20.4346 13.5 20.4346C17.3285 20.4346 20.4346 17.3285 20.4346 13.5C20.4346 9.67148 17.3285 6.56543 13.5 6.56543ZM13.5 17.9982C11.0162 17.9982 9.00176 15.9838 9.00176 13.5C9.00176 11.0162 11.0162 9.00176 13.5 9.00176C15.9838 9.00176 17.9982 11.0162 17.9982 13.5C17.9982 15.9838 15.9838 17.9982 13.5 17.9982Z" fill="white"/>
<path d="M22.3277 6.29131C22.3277 7.1878 21.6 7.91026 20.7088 7.91026C19.8123 7.91026 19.0898 7.18252 19.0898 6.29131C19.0898 5.39483 19.8176 4.67236 20.7088 4.67236C21.6 4.67236 22.3277 5.4001 22.3277 6.29131Z" fill="white"/>
</svg>
