<svg width="35" height="35" viewBox="0 0 35 35" fill="none" xmlns="http://www.w3.org/2000/svg">
<g id="smartphone">
<g id="Vector">
<path d="M24.7917 1.47308L10.2083 1.4585C8.60417 1.4585 7.29167 2.771 7.29167 4.37516V30.6252C7.29167 32.2293 8.60417 33.5418 10.2083 33.5418H24.7917C26.3958 33.5418 27.7083 32.2293 27.7083 30.6252V4.37516C27.7083 2.771 26.3958 1.47308 24.7917 1.47308ZM24.7917 27.7085H10.2083V7.29183H24.7917V27.7085Z" fill="black"/>
<path d="M24.7917 1.47308L10.2083 1.4585C8.60417 1.4585 7.29167 2.771 7.29167 4.37516V30.6252C7.29167 32.2293 8.60417 33.5418 10.2083 33.5418H24.7917C26.3958 33.5418 27.7083 32.2293 27.7083 30.6252V4.37516C27.7083 2.771 26.3958 1.47308 24.7917 1.47308ZM24.7917 27.7085H10.2083V7.29183H24.7917V27.7085Z" fill="black" fill-opacity="0.2"/>
</g>
</g>
</svg>
