<svg width="27" height="27" viewBox="0 0 27 27" fill="none" xmlns="http://www.w3.org/2000/svg">
<g clip-path="url(#clip0_504_280)">
<path d="M8.49393 24.4686C18.6801 24.4686 24.2531 16.0274 24.2531 8.70944C24.2531 8.47214 24.2478 8.22956 24.2372 7.99225C25.3214 7.20824 26.2569 6.23713 27 5.12456C25.9903 5.57377 24.9183 5.86715 23.8206 5.99468C24.9764 5.30187 25.8418 4.2135 26.2564 2.93134C25.1691 3.57572 23.98 4.03029 22.7401 4.27553C21.9047 3.38785 20.8001 2.8001 19.5971 2.60315C18.3942 2.40621 17.1598 2.61103 16.085 3.18596C15.0101 3.76088 14.1545 4.67389 13.6506 5.78382C13.1466 6.89375 13.0224 8.13879 13.297 9.32643C11.0953 9.21595 8.94143 8.64401 6.97498 7.64771C5.00853 6.6514 3.2734 5.25296 1.88209 3.54305C1.17495 4.76225 0.958564 6.20495 1.27691 7.57795C1.59526 8.95095 2.42445 10.1512 3.59596 10.9348C2.71646 10.9069 1.85622 10.6701 1.08633 10.244V10.3126C1.08554 11.592 1.52786 12.8323 2.3381 13.8225C3.14834 14.8127 4.27649 15.4917 5.53078 15.7442C4.71606 15.9671 3.86098 15.9996 3.0317 15.8391C3.38564 16.9395 4.07427 17.9018 5.00149 18.592C5.92871 19.2821 7.04826 19.6655 8.20389 19.6887C6.24198 21.2298 3.81845 22.0657 1.32363 22.0618C0.881198 22.0611 0.439199 22.034 0 21.9806C2.53446 23.6066 5.48272 24.4702 8.49393 24.4686Z" fill="white"/>
</g>
<defs>
<clipPath id="clip0_504_280">
<rect width="27" height="27" fill="white"/>
</clipPath>
</defs>
</svg>
