<svg width="80" height="72" viewBox="0 0 80 72" fill="none" xmlns="http://www.w3.org/2000/svg">
<path fill-rule="evenodd" clip-rule="evenodd" d="M26.7735 35.9999L1.87687 60.8965C-0.625625 63.399 -0.561458 67.5057 1.87687 70.0082C4.37937 72.5107 8.42187 72.5107 10.9244 70.0082L40.3769 40.5557C42.8794 38.0532 42.8794 34.0107 40.3769 31.5082L10.9244 2.05571C8.42187 -0.446792 4.37937 -0.446792 1.87687 2.05571C-0.625625 4.55821 -0.625625 8.60071 1.87687 11.1032L26.7735 35.9999ZM63.7735 35.9999L38.8769 60.8965C36.3744 63.399 36.4385 67.5057 38.8769 70.0082C41.3794 72.5107 45.4219 72.5107 47.9244 70.0082L77.3769 40.5557C79.8794 38.0532 79.8794 34.0107 77.3769 31.5082L47.9244 2.05571C45.4219 -0.446792 41.3794 -0.446792 38.8769 2.05571C36.3744 4.55821 36.3744 8.60071 38.8769 11.1032L63.7735 35.9999Z" fill="#2B80B0"/>
</svg>
